<svg width="18" height="18" viewBox="0 0 18 18" fill="none" xmlns="http://www.w3.org/2000/svg">
<path fill-rule="evenodd" clip-rule="evenodd" d="M9 18C4.032 18 0 13.977 0 9C0 4.032 4.032 0 9 0C13.977 0 18 4.032 18 9C18 13.977 13.977 18 9 18ZM11.8708 12.339C11.9788 12.402 12.0958 12.438 12.2218 12.438C12.4468 12.438 12.6718 12.321 12.7978 12.105C12.9868 11.79 12.8878 11.376 12.5638 11.178L9.35977 9.27001V5.11201C9.35977 4.73401 9.05377 4.43701 8.68477 4.43701C8.31577 4.43701 8.00977 4.73401 8.00977 5.11201V9.65701C8.00977 9.89101 8.13577 10.107 8.34277 10.233L11.8708 12.339Z" fill="#3FB195"/>
</svg>
