<svg width="18" height="19" viewBox="0 0 18 19" fill="none" xmlns="http://www.w3.org/2000/svg">
<path d="M14.9359 12.9494C14.5431 12.9508 14.1547 13.0317 13.7939 13.187C13.4332 13.3424 13.1075 13.569 12.8365 13.8533L5.72737 10.2958C5.90225 9.76557 5.90225 9.19317 5.72737 8.6629L12.8481 5.0413C13.3582 5.57878 14.0498 5.90742 14.7887 5.96335C15.5275 6.01928 16.2608 5.79849 16.8459 5.34391C17.4311 4.88932 17.8263 4.23341 17.9548 3.50367C18.0832 2.77393 17.9358 2.02248 17.5411 1.39539C17.1464 0.768293 16.5326 0.310354 15.8191 0.110578C15.1056 -0.0891982 14.3433 -0.0165397 13.6803 0.314431C13.0174 0.645402 12.5012 1.21104 12.232 1.9014C11.9629 2.59177 11.9601 3.35754 12.2241 4.04987L5.17334 7.63649C4.79254 7.17078 4.27703 6.83425 3.69747 6.67302C3.1179 6.51179 2.50266 6.53375 1.93607 6.73591C1.36948 6.93806 0.879281 7.31051 0.53267 7.80219C0.186058 8.29387 0 8.88071 0 9.48229C0 10.0839 0.186058 10.6707 0.53267 11.1624C0.879281 11.6541 1.36948 12.0265 1.93607 12.2287C2.50266 12.4308 3.1179 12.4528 3.69747 12.2916C4.27703 12.1303 4.79254 11.7938 5.17334 11.3281L12.2066 14.868C12.0878 15.1871 12.0266 15.5248 12.0258 15.8653C12.0258 16.442 12.1968 17.0058 12.5172 17.4853C12.8377 17.9648 13.2931 18.3386 13.8259 18.5593C14.3587 18.78 14.945 18.8377 15.5106 18.7252C16.0763 18.6127 16.5959 18.335 17.0037 17.9272C17.4115 17.5194 17.6892 16.9998 17.8017 16.4342C17.9142 15.8685 17.8565 15.2822 17.6358 14.7494C17.4151 14.2166 17.0413 13.7612 16.5618 13.4408C16.0823 13.1204 15.5185 12.9494 14.9418 12.9494H14.9359Z" fill="currentColor"/>
</svg>
